PathFileType	4	(X/Y/Z)	C:\Users\Basilio\Documents\Thesis Gigler\squatting_fais\c3dfiles\044\SLS_front_pre4\markers_experimental.trc
DataRate	CameraRate	NumFrames	NumMarkers	Units	OrigDataRate	OrigDataStartFrame	OrigNumFrames
200.000000	200.000000	4	60	mm	200.000000	323	1293
Frame#	Time	FHD			LBHD			RBHD			C7			T10			LSHO			LUUPA			LMUPA			LDUPA			LLEP			LMEP			LUL			LRFIN			RSHO			RUPA1			RMUPA			RDUPA			RLEP			RMEP			RUL			LASI			RASI			USACR			LSACR			RSACR			LTHI1			LTHI2			LTHI3			LTHI4			LLFC			LMFC			LTIB1			LTIB2			LTIB3			LTIB4			LLMAL			LMMAL			LHEE			LMT1			LMT2			LMT5			RTHI			RTHI2			RTHI3			RTHI4			RLFC			RMFC			RTIB1			RTIB2			RTIB3			RTIB4			RLMAL			RHEE			RMT1			RMT2			RMT5			RUFIN			CLAV			LRAD			RMMAL			
		X1	Y1	Z1	X2	Y2	Z2	X3	Y3	Z3	X4	Y4	Z4	X5	Y5	Z5	X6	Y6	Z6	X7	Y7	Z7	X8	Y8	Z8	X9	Y9	Z9	X10	Y10	Z10	X11	Y11	Z11	X12	Y12	Z12	X13	Y13	Z13	X14	Y14	Z14	X15	Y15	Z15	X16	Y16	Z16	X17	Y17	Z17	X18	Y18	Z18	X19	Y19	Z19	X20	Y20	Z20	X21	Y21	Z21	X22	Y22	Z22	X23	Y23	Z23	X24	Y24	Z24	X25	Y25	Z25	X26	Y26	Z26	X27	Y27	Z27	X28	Y28	Z28	X29	Y29	Z29	X30	Y30	Z30	X31	Y31	Z31	X32	Y32	Z32	X33	Y33	Z33	X34	Y34	Z34	X35	Y35	Z35	X36	Y36	Z36	X37	Y37	Z37	X38	Y38	Z38	X39	Y39	Z39	X40	Y40	Z40	X41	Y41	Z41	X42	Y42	Z42	X43	Y43	Z43	X44	Y44	Z44	X45	Y45	Z45	X46	Y46	Z46	X47	Y47	Z47	X48	Y48	Z48	X49	Y49	Z49	X50	Y50	Z50	X51	Y51	Z51	X52	Y52	Z52	X53	Y53	Z53	X54	Y54	Z54	X55	Y55	Z55	X56	Y56	Z56	X57	Y57	Z57	X58	Y58	Z58	X59	Y59	Z59	X60	Y60	Z60	

324	1.615	-232.236312866211	1798.178466796875	-1032.490844726563	-364.9943847656251	1760.779663085938	-1109.286499023438	-408.7200012207032	1747.160766601563	-949.378601074219	-421.9424133300782	1569.68603515625	-1034.327270507813	-427.5632324218751	1267.02294921875	-1013.794555664063	-322.3385620117188	1585.324096679688	-1178.602783203125	-152.2856597900391	1553.619506835938	-1268.259521484375	-127.8346252441407	1562.198364257813	-1224.571899414063	-84.45095825195314	1544.472412109375	-1264.80224609375	-26.83917808532716	1541.1357421875	-1252.030151367188	-40.99792861938477	1464.826782226563	-1239.215942382813	222.1111907958985	1538.736206054688	-1122.659423828125	233.3459014892579	1553.849243164063	-1021.099792480469	-338.8692016601563	1583.132202148438	-873.9069824218752	-184.1718139648438	1551.5654296875	-773.2779541015627	-153.779052734375	1565.1611328125	-811.7046508789065	-114.5045394897461	1548.10546875	-769.3408813476565	-53.37479400634767	1547.204956054688	-778.9407348632815	-59.95236206054689	1467.772827148438	-789.9993896484377	205.5682983398438	1545.959228515625	-891.4494628906252	-253.6116790771485	1067.086059570313	-1096.971069335938	-258.8789062500001	1066.912841796875	-880.4521484375002	-424.5948791503907	1118.63671875	-991.2286376953127	-428.1085815429689	1083.763305664063	-1015.445861816406	-430.8884277343751	1091.826049804688	-958.9917602539065	-329.3306274414063	819.3257446289065	-1154.875244140625	-287.8151550292969	745.6466674804689	-1150.197143554688	-240.5613403320313	753.5248413085939	-1146.09375	-308.3952941894532	691.6768188476564	-1133.53466796875	-275.5483398437501	537.2761230468751	-1111.7021484375	-268.6828613281251	538.6740112304689	-988.811706542969	-262.0405578613282	365.8603820800782	-1024.136962890625	-288.5455932617188	315.5887145996094	-1091.933471679688	-258.6151123046876	316.2441406250001	-1054.59814453125	-282.3229370117188	240.5320129394532	-1018.915649414063	-341.6356811523438	128.3229064941407	-1058.054077148438	-323.2354431152344	136.5273590087891	-973.4209594726565	-407.4781799316407	111.4817276000977	-1007.939331054688	-202.4494171142579	60.58998107910158	-984.128112792969	-199.9752807617188	64.2058563232422	-1030.630249023438	-237.9451599121094	51.1614112854004	-1078.0029296875	-280.6761169433594	797.7745361328127	-790.8697509765627	-224.2676086425782	760.9677734375001	-790.1870117187502	-194.9030151367188	772.3257446289065	-800.2791137695315	-222.8675689697266	676.7742919921876	-802.5833129882815	-191.7954711914063	567.7429809570314	-806.0279541015627	-198.1540222167969	553.0528564453126	-928.7034912109377	-120.5845108032227	451.4606018066407	-827.0205078125002	-174.6410522460938	368.3695373535157	-776.8037719726565	-132.5347442626953	370.1836853027344	-794.4233398437502	-110.8009490966797	321.5349121093751	-817.3625488281252	-139.1504058837891	157.2819213867188	-793.1225585937502	-184.2155456542969	102.8036727905274	-836.4072875976565	21.43535423278809	147.4836120605469	-861.008728027344	28.76008415222169	146.8740692138672	-824.4030761718752	-0.9296436309814455	118.4352493286133	-771.7390747070315	226.8235321044922	1525.657592773438	-1003.721130371094	-279.2642517089844	1538.227661132813	-1030.125	204.3545227050782	1491.29931640625	-1073.986938476563	-121.5130310058594	167.1397705078125	-876.6467285156252	
325	1.62	-232.3300781250001	1798.204223632813	-1032.554321289063	-365.0588073730469	1760.817016601563	-1109.2939453125	-408.8282775878907	1747.0283203125	-949.458435058594	-421.9956970214845	1569.699340820313	-1034.396728515625	-427.586151123047	1266.985595703125	-1013.975769042969	-322.5641174316407	1585.368896484375	-1178.6826171875	-152.3656616210938	1553.6083984375	-1268.438110351563	-127.9630508422852	1562.216796875	-1224.68115234375	-84.52142333984376	1544.404541015625	-1264.996948242188	-26.58367729187012	1540.801635742188	-1252.257080078125	-41.19829940795899	1464.760009765625	-1239.263916015625	221.9919738769532	1538.733276367188	-1122.943359375	233.1588439941407	1553.896606445313	-1021.388793945313	-338.9497985839844	1583.003784179688	-873.9219360351565	-184.1983947753907	1551.400268554688	-773.317810058594	-153.8031768798828	1565.027221679688	-811.7480468750002	-114.6618957519532	1548.153442382813	-769.7195434570315	-53.42242431640626	1547.193603515625	-779.3685302734377	-60.01245117187501	1467.741943359375	-790.1655273437502	205.4171295166016	1545.75732421875	-891.5223388671877	-253.708724975586	1067.076782226563	-1097.389892578125	-258.7706298828126	1066.916137695313	-880.7676391601565	-424.4968566894532	1118.076293945313	-991.2751464843752	-428.247283935547	1083.715698242188	-1015.586669921875	-430.8760681152345	1091.838134765625	-959.2144775390627	-329.3687133789063	819.3508911132815	-1155.064331054688	-287.8926696777344	745.6491699218751	-1150.45458984375	-240.2558135986329	753.6704711914064	-1146.689208984375	-308.4382934570313	691.7153320312501	-1133.712768554688	-275.6112976074219	537.2118530273439	-1111.882934570313	-268.9079895019532	539.5391235351564	-989.9854736328127	-262.0020141601563	365.9623413085938	-1024.324462890625	-288.7334594726563	315.5068969726563	-1091.985595703125	-258.1842346191407	316.4047851562501	-1054.78662109375	-282.3114013671876	240.5173645019532	-1019.071533203125	-341.7083435058594	127.9393463134766	-1058.167236328125	-323.2712402343751	136.5343322753907	-973.425476074219	-407.507537841797	111.4233169555664	-1007.931701660156	-202.3859405517579	60.38318252563478	-983.8852539062502	-200.0351257324219	64.4199676513672	-1030.742431640625	-237.8906707763672	51.117244720459	-1078.022705078125	-280.2138061523438	797.7932128906252	-791.4882812500002	-223.7984313964844	760.9243164062501	-790.6081542968752	-194.6135406494141	772.3020629882815	-800.9741210937502	-222.2158966064454	676.1973266601564	-802.897399902344	-191.6643981933594	567.5286254882814	-806.645690917969	-198.1428527832032	552.9789428710939	-929.3264160156252	-120.2600708007813	451.4383239746095	-827.8526000976565	-173.8058624267578	368.0520629882813	-778.0486450195315	-131.8321990966797	370.0077514648438	-795.3917236328127	-110.2135009765625	321.5814819335938	-818.3164672851565	-138.8278350830078	157.2296142578125	-794.019958496094	-184.0675811767578	102.7577209472657	-837.311462402344	21.97128295898438	147.6093139648438	-862.0859375000002	29.11901092529298	146.8384857177735	-824.9641723632815	-0.3412119746208191	118.5347213745117	-772.562194824219	226.6071014404297	1525.576416015625	-1003.914123535156	-279.3623046875001	1538.209350585938	-1030.242065429688	204.3800964355469	1491.16015625	-1074.267822265625	-121.2421188354492	167.1086120605469	-877.567077636719	
326	1.625	-232.5303802490235	1798.218017578125	-1032.5263671875	-365.0708923339844	1760.892211914063	-1109.317260742188	-408.9855346679689	1747.042602539063	-949.5175781250002	-422.0627441406251	1569.571899414063	-1034.479125976563	-427.585418701172	1266.951782226563	-1014.17724609375	-322.6236877441407	1585.385864257813	-1178.745483398438	-152.5172729492188	1553.644897460938	-1268.536743164063	-128.0567474365235	1562.209228515625	-1224.822509765625	-84.76208496093751	1544.397338867188	-1265.142333984375	-27.20579338073731	1541.120361328125	-1252.265014648438	-41.39470291137696	1464.564819335938	-1239.429809570313	221.8288269042969	1538.712158203125	-1123.198852539063	233.0606689453126	1553.888549804688	-1021.58056640625	-338.9873962402344	1582.845458984375	-874.014343261719	-184.1730651855469	1551.099243164063	-773.5080566406252	-153.8729248046875	1564.923095703125	-811.8458251953127	-114.7797775268555	1548.018310546875	-769.860290527344	-53.39769744873048	1547.128051757813	-779.4194335937502	-60.10203552246095	1467.568725585938	-790.2493286132815	205.349105834961	1545.59912109375	-891.7052001953127	-253.7981872558594	1067.09765625	-1097.838989257813	-258.6424865722657	1066.752563476563	-881.1692504882815	-424.509490966797	1118.027587890625	-991.4675903320315	-428.2715759277345	1083.667358398438	-1015.767700195313	-430.915252685547	1091.773681640625	-959.3731689453127	-329.3877258300782	819.3130493164065	-1155.386474609375	-287.8503417968751	745.4682006835939	-1150.739135742188	-240.3357696533204	753.6334838867189	-1146.889526367188	-308.4137878417969	691.7285156250001	-1133.838745117188	-275.6041870117188	537.2159423828126	-1112.093505859375	-268.6854248046876	538.7436523437501	-989.2359008789065	-261.9543762207032	365.7953491210938	-1024.411254882813	-288.7112731933594	315.5105590820313	-1092.070556640625	-257.8438720703126	316.7926635742188	-1054.981811523438	-282.2964172363282	240.5040893554688	-1019.11865234375	-341.6510620117188	128.3041687011719	-1058.082763671875	-323.2633666992188	136.5746002197266	-973.4444580078127	-407.4957580566407	111.3788146972657	-1007.925170898438	-202.4538726806641	60.48051834106447	-983.9979248046877	-199.8136749267579	64.11936187744142	-1030.580322265625	-237.4697418212891	51.75538253784181	-1078.146118164063	-280.0232543945313	797.7742309570315	-791.6800537109377	-223.6165161132813	760.8653564453126	-791.415954589844	-194.3269805908204	772.3348388671877	-801.9147949218752	-222.0783386230469	676.4025878906251	-803.5816040039065	-191.3393707275391	567.5025024414064	-807.2871704101565	-198.1973724365235	552.9848022460939	-929.9848632812502	-119.835693359375	451.1333312988282	-828.1069335937502	-173.3970489501953	368.0676879882813	-778.903747558594	-131.5096893310547	370.1159362792969	-796.3159790039065	-109.8356704711914	321.4703063964844	-818.7034301757815	-138.111801147461	157.1781463623047	-794.9754638671877	-183.3552551269532	102.4288177490235	-838.1751708984377	22.45244789123536	147.4563751220703	-862.9068603515627	29.85815811157227	146.7306518554688	-826.0699462890627	0.1708804965019226	118.7078628540039	-773.6624755859377	226.4320678710938	1525.511596679688	-1004.045166015625	-279.4672546386719	1538.153686523438	-1030.334716796875	204.2317199707032	1490.9306640625	-1074.464111328125	-120.9272842407227	167.0806732177735	-878.398864746094	
327	1.63	-232.8771209716797	1798.148559570313	-1032.347900390625	-365.3007202148438	1760.7861328125	-1109.247680664063	-409.1171875000001	1746.296264648438	-948.9658203125002	-422.166473388672	1569.578857421875	-1034.494873046875	-427.688934326172	1266.904907226563	-1014.327880859375	-322.6906433105469	1585.491455078125	-1178.822631835938	-152.8140258789063	1553.689331054688	-1268.632568359375	-128.1826171875	1562.163940429688	-1224.9443359375	-84.89712524414064	1544.432861328125	-1265.2802734375	-27.39828681945801	1541.115966796875	-1252.40087890625	-41.76173782348634	1464.448486328125	-1239.376098632813	221.6343536376954	1538.644897460938	-1123.394287109375	232.8669891357422	1553.719970703125	-1021.689270019531	-338.9715576171876	1582.704833984375	-874.1035766601565	-184.1602172851563	1550.82177734375	-773.5954589843752	-153.9062957763672	1564.82568359375	-811.944763183594	-114.7843322753907	1547.76416015625	-769.946716308594	-53.41479110717775	1546.935302734375	-779.5594482421877	-60.10057449340822	1467.424560546875	-790.3366699218752	205.3280639648438	1545.49951171875	-891.9067382812502	-253.9891204833985	1067.059692382813	-1098.185791015625	-258.5664672851563	1066.776977539063	-881.4744262695315	-424.5520019531251	1118.00927734375	-991.7235107421877	-428.2107543945314	1083.586059570313	-1015.993469238281	-430.9237060546876	1091.74755859375	-959.5241699218752	-329.4234619140626	819.237487792969	-1155.620483398438	-287.9822692871094	745.4672851562501	-1150.895141601563	-240.3686065673829	753.5913085937501	-1147.0947265625	-308.4992065429688	691.7046508789064	-1133.950805664063	-275.5319519042969	537.1596679687501	-1112.281494140625	-268.7986450195313	539.6110229492189	-990.336608886719	-261.9484558105469	365.8091735839844	-1024.441040039063	-288.5791931152344	315.4972839355469	-1092.133056640625	-257.7106018066407	317.0667114257813	-1055.05859375	-282.2569274902344	240.4598999023438	-1019.187438964844	-341.7074584960938	128.2386016845703	-1058.105224609375	-323.2779846191407	136.5545501708985	-973.4082031250002	-407.5071411132814	111.4006729125977	-1007.881103515625	-202.4686584472657	60.43724060058595	-983.9567871093752	-199.9755249023438	64.27182006835939	-1030.680541992188	-237.4888153076172	51.70574951171876	-1078.117919921875	-279.6833190917969	797.7222900390627	-792.036315917969	-223.3498077392579	760.9216308593751	-792.2002563476565	-194.1124114990235	772.3628540039065	-802.4615478515627	-222.0676269531251	676.5845336914064	-804.3386230468752	-191.1517944335938	567.4649658203126	-807.956481933594	-198.2433776855469	552.9002075195314	-930.682312011719	-119.5209579467774	451.3152160644532	-828.897644042969	-173.3075714111328	367.8717651367188	-778.9973754882815	-131.313232421875	370.2601623535157	-796.9387207031252	-109.6325073242188	321.4119262695313	-819.4575195312502	-137.6894683837891	157.2202606201172	-795.7143554687502	-182.7956237792969	102.0966415405274	-838.271179199219	22.77203178405762	147.3848571777344	-863.9453735351565	30.14197731018067	146.7676544189453	-827.091491699219	0.6637678146362306	118.8641357421875	-774.433776855469	226.1737823486329	1525.37158203125	-1004.274291992188	-279.4978942871094	1538.1435546875	-1030.541381835938	204.1082763671876	1490.802978515625	-1074.609130859375	-120.4156570434571	166.9349975585938	-879.2144165039065	
